<svg width="33" height="33" viewBox="0 0 33 33" fill="none" xmlns="http://www.w3.org/2000/svg">
<path d="M6.89026 5.40399L26.8903 27.404" stroke="black" stroke-width="2" stroke-linecap="round" stroke-linejoin="round"/>
<path d="M20.2527 20.104C19.3351 20.9446 18.1346 21.4087 16.8902 21.404C15.881 21.4039 14.8955 21.0984 14.0632 20.5277C13.2309 19.957 12.5908 19.1478 12.227 18.2065C11.8632 17.2652 11.7927 16.2358 12.0249 15.2537C12.257 14.2716 12.7809 13.3828 13.5277 12.704" stroke="black" stroke-width="2" stroke-linecap="round" stroke-linejoin="round"/>
<path d="M10.1403 8.979C5.04026 11.554 2.89026 16.404 2.89026 16.404C2.89026 16.404 6.89026 25.404 16.8903 25.404C19.2335 25.4231 21.5475 24.8832 23.6403 23.829" stroke="black" stroke-width="2" stroke-linecap="round" stroke-linejoin="round"/>
<path d="M26.9652 21.5415C29.6902 19.104 30.8902 16.404 30.8902 16.404C30.8902 16.404 26.8902 7.40402 16.8902 7.40402C16.0233 7.40231 15.1578 7.47339 14.3027 7.61652" stroke="black" stroke-width="2" stroke-linecap="round" stroke-linejoin="round"/>
<path d="M17.8278 11.4915C18.8911 11.693 19.86 12.2348 20.5883 13.0353C21.3166 13.8358 21.7648 14.8515 21.8653 15.929" stroke="black" stroke-width="2" stroke-linecap="round" stroke-linejoin="round"/>
</svg>
